<?xml version="1.0" standalone="no"?>
<!DOCTYPE svg PUBLIC "-//W3C//DTD SVG 20010904//EN"
 "http://www.w3.org/TR/2001/REC-SVG-20010904/DTD/svg10.dtd">
<svg version="1.0" xmlns="http://www.w3.org/2000/svg"
 width="700.000000pt" height="700.000000pt" viewBox="0 0 700.000000 700.000000"
 preserveAspectRatio="xMidYMid meet">
<metadata>
Created by potrace 1.14, written by Peter Selinger 2001-2017
</metadata>
<g transform="translate(0.000000,700.000000) scale(0.100000,-0.100000)"
fill="#000000" stroke="none">
<path d="M2884 6285 c-7 -5 -110 -179 -229 -385 -118 -206 -219 -382 -225
-390 -5 -8 -55 -95 -112 -193 -57 -98 -108 -185 -113 -195 -158 -265 -229
-459 -271 -742 -12 -80 -11 -312 2 -413 7 -54 22 -137 34 -185 19 -82 27 -108
46 -157 4 -11 8 -22 8 -25 11 -55 102 -232 234 -459 56 -96 102 -175 102 -177
0 -1 21 -38 46 -81 26 -43 55 -91 64 -108 10 -16 75 -129 145 -250 70 -121
138 -239 151 -262 28 -49 0 -45 282 -45 96 0 176 3 179 5 2 3 -62 121 -144
264 -189 330 -187 325 -212 407 -33 106 -34 114 -37 241 -6 232 14 283 290
758 112 194 351 606 380 657 20 36 41 72 46 80 6 8 55 94 110 190 55 96 104
182 109 190 9 13 264 453 301 519 32 56 126 217 137 236 7 11 17 29 23 40 11
22 8 16 168 292 62 106 112 194 112 195 0 9 -1615 2 -1626 -7z"/>
<path d="M3382 3690 c-9 -14 -22 -34 -28 -45 -6 -11 -48 -85 -93 -163 -45 -79
-81 -145 -79 -147 2 -2 152 -5 333 -6 342 -1 410 -7 525 -47 154 -54 306 -164
402 -292 25 -33 228 -377 228 -386 0 -2 16 -28 35 -58 19 -30 35 -58 35 -61 0
-3 11 -23 24 -44 14 -21 93 -157 176 -302 84 -145 160 -277 170 -294 9 -16 55
-97 102 -180 47 -82 113 -196 147 -253 34 -57 61 -105 61 -107 0 -2 18 -32 39
-67 21 -35 47 -80 58 -99 10 -19 137 -240 282 -492 l264 -458 27 43 c28 45
236 402 275 473 12 22 97 171 190 330 92 160 179 310 193 334 14 25 38 68 55
95 16 28 40 70 53 93 l24 41 -91 159 c-51 87 -183 316 -294 508 -112 193 -213
368 -225 390 -12 22 -44 77 -71 123 -27 45 -49 85 -49 87 0 14 -132 196 -194
267 -150 172 -318 302 -521 402 -162 80 -336 138 -485 160 -114 17 -220 19
-853 20 l-698 1 -17 -25z"/>
<path d="M4045 2618 c-65 -112 -129 -223 -143 -248 -77 -138 -149 -223 -255
-303 -60 -45 -148 -99 -167 -102 -3 0 -30 -10 -60 -22 -131 -50 -93 -49 -1812
-48 l-1607 0 23 -40 c13 -22 40 -69 60 -105 21 -36 46 -81 58 -100 11 -19 140
-242 286 -495 146 -253 293 -507 326 -565 l62 -105 774 0 c426 0 811 3 855 8
317 32 653 167 880 351 27 23 58 48 68 56 49 39 187 188 242 262 34 46 104
155 155 243 51 88 101 172 111 187 11 15 19 29 19 32 0 3 75 135 167 293 91
158 176 306 188 328 12 22 41 71 63 108 23 37 43 75 44 83 3 15 -202 383 -213
384 -3 0 -59 -91 -124 -202z"/>
</g>
</svg>
