<?xml version="1.0" standalone="no"?>
<!DOCTYPE svg PUBLIC "-//W3C//DTD SVG 20010904//EN"
 "http://www.w3.org/TR/2001/REC-SVG-20010904/DTD/svg10.dtd">
<svg version="1.0" xmlns="http://www.w3.org/2000/svg"
 width="512.000000pt" height="512.000000pt" viewBox="0 0 512.000000 512.000000"
 preserveAspectRatio="xMidYMid meet">
<metadata>
Created by potrace 1.14, written by Peter Selinger 2001-2017
</metadata>
<g transform="translate(0.000000,512.000000) scale(0.100000,-0.100000)"
fill="#000000" stroke="none">
<path d="M2025 4623 c-66 -114 -134 -232 -151 -263 -17 -30 -80 -138 -139
-240 -151 -259 -192 -338 -226 -430 -99 -272 -102 -579 -8 -846 43 -122 154
-328 430 -792 27 -45 49 -84 49 -87 0 -7 94 -159 101 -165 6 -4 293 -5 321 -1
3 1 -39 79 -94 174 -178 304 -200 362 -201 517 0 104 19 191 61 275 24 48 92
167 245 430 38 66 82 141 96 166 14 25 64 112 111 193 112 194 99 171 285 491
89 154 173 300 187 325 37 66 238 411 254 438 l14 22 -607 0 -608 0 -120 -207z"/>
<path d="M2450 2778 c-41 -73 -76 -137 -78 -143 -2 -7 75 -11 250 -11 205 -1
266 -5 323 -19 132 -33 242 -98 324 -192 40 -44 137 -200 212 -339 18 -33 37
-66 43 -74 6 -8 16 -24 22 -35 9 -16 171 -298 264 -460 10 -16 46 -79 80 -140
34 -60 68 -117 76 -125 7 -8 12 -17 11 -20 0 -3 16 -34 37 -70 21 -36 47 -80
57 -98 11 -18 81 -139 156 -270 75 -130 167 -291 205 -357 38 -66 73 -124 78
-129 5 -5 15 5 24 23 9 17 89 156 177 308 89 153 173 298 187 323 13 25 48 86
77 135 151 257 145 246 131 274 -8 14 -62 109 -121 211 -59 102 -115 199 -125
216 -26 45 -163 281 -242 417 -105 181 -144 234 -242 332 -101 99 -107 105
-192 162 -130 88 -331 171 -459 189 -22 3 -60 10 -85 14 -25 5 -286 9 -580 10
l-535 0 -75 -132z"/>
<path d="M3066 2188 c-20 -35 -41 -70 -46 -78 -35 -58 -100 -174 -100 -181 0
-5 -4 -9 -10 -9 -5 0 -10 -5 -10 -11 0 -20 -73 -121 -127 -175 -88 -88 -217
-152 -345 -172 -29 -4 -587 -7 -1240 -7 l-1188 1 24 -40 c13 -23 33 -57 43
-76 24 -41 121 -209 321 -555 80 -137 154 -266 164 -285 11 -19 28 -48 38 -65
l19 -30 598 1 c329 1 615 4 636 8 20 3 54 8 75 12 141 20 344 103 487 199 123
82 269 229 346 350 24 37 223 378 274 470 13 22 71 122 129 223 58 101 106
192 106 201 0 10 -9 30 -20 44 -11 14 -20 27 -20 30 0 3 -27 51 -59 107 l-59
102 -36 -64z"/>
</g>
</svg>
